<svg xmlns="http://www.w3.org/2000/svg" xmlns:xlink="http://www.w3.org/1999/xlink" width="500" zoomAndPan="magnify" viewBox="0 0 375 374.999991" height="500" preserveAspectRatio="xMidYMid meet" version="1.2"><defs><clipPath id="91a823672d"><path d="M 154 148 L 199 148 L 199 207 L 154 207 Z M 154 148 "/></clipPath><clipPath id="69c1acdf02"><path d="M 185.195312 148.035156 L 198.742188 156.210938 L 168.128906 206.933594 L 154.582031 198.757812 Z M 185.195312 148.035156 "/></clipPath><clipPath id="38c6303a19"><path d="M 155 156 L 186 156 L 186 187 L 155 187 Z M 155 156 "/></clipPath><clipPath id="30217e9aef"><path d="M 167.347656 156.113281 L 185.804688 167.253906 L 174.457031 186.0625 L 155.996094 174.921875 Z M 167.347656 156.113281 "/></clipPath><clipPath id="ab0018d2f4"><path d="M 177 158 L 207 158 L 207 187 L 177 187 Z M 177 158 "/></clipPath><clipPath id="8e90232b0b"><path d="M 187.726562 158.121094 L 206.1875 169.261719 L 196.046875 186.0625 L 177.585938 174.921875 Z M 187.726562 158.121094 "/></clipPath></defs><g id="8d8d4849cd"><g style="fill:#000000;fill-opacity:1;"><g transform="translate(120.455658, 252.371028)"><path style="stroke:none" d="M 2.75 -7 L 0.046875 -7 L 0.046875 -7.703125 L 6.265625 -7.703125 L 6.265625 -7 L 3.5625 -7 L 3.5625 0 L 2.75 0 Z M 2.75 -7 "/></g></g><g style="fill:#000000;fill-opacity:1;"><g transform="translate(134.520263, 252.371028)"><path style="stroke:none" d="M 6.515625 0 L 4.75 -2.46875 C 4.550781 -2.445312 4.347656 -2.4375 4.140625 -2.4375 L 2.0625 -2.4375 L 2.0625 0 L 1.25 0 L 1.25 -7.703125 L 4.140625 -7.703125 C 5.117188 -7.703125 5.882812 -7.46875 6.4375 -7 C 7 -6.53125 7.28125 -5.882812 7.28125 -5.0625 C 7.28125 -4.457031 7.128906 -3.945312 6.828125 -3.53125 C 6.523438 -3.125 6.085938 -2.828125 5.515625 -2.640625 L 7.40625 0 Z M 4.109375 -3.140625 C 4.878906 -3.140625 5.460938 -3.304688 5.859375 -3.640625 C 6.265625 -3.972656 6.46875 -4.445312 6.46875 -5.0625 C 6.46875 -5.6875 6.265625 -6.164062 5.859375 -6.5 C 5.460938 -6.832031 4.878906 -7 4.109375 -7 L 2.0625 -7 L 2.0625 -3.140625 Z M 4.109375 -3.140625 "/></g></g><g style="fill:#000000;fill-opacity:1;"><g transform="translate(150.222712, 252.371028)"><path style="stroke:none" d="M 6.703125 -0.703125 L 6.703125 0 L 1.25 0 L 1.25 -7.703125 L 6.53125 -7.703125 L 6.53125 -7 L 2.0625 -7 L 2.0625 -4.25 L 6.046875 -4.25 L 6.046875 -3.5625 L 2.0625 -3.5625 L 2.0625 -0.703125 Z M 6.703125 -0.703125 "/></g></g><g style="fill:#000000;fill-opacity:1;"><g transform="translate(165.331578, 252.371028)"><path style="stroke:none" d="M 7.6875 -7.703125 L 7.6875 0 L 7.015625 0 L 2.0625 -6.25 L 2.0625 0 L 1.25 0 L 1.25 -7.703125 L 1.921875 -7.703125 L 6.890625 -1.453125 L 6.890625 -7.703125 Z M 7.6875 -7.703125 "/></g></g><g style="fill:#000000;fill-opacity:1;"><g transform="translate(182.023323, 252.371028)"><path style="stroke:none" d="M 1.25 -7.703125 L 4.390625 -7.703125 C 5.203125 -7.703125 5.921875 -7.535156 6.546875 -7.203125 C 7.171875 -6.878906 7.65625 -6.425781 8 -5.84375 C 8.34375 -5.257812 8.515625 -4.59375 8.515625 -3.84375 C 8.515625 -3.101562 8.34375 -2.441406 8 -1.859375 C 7.65625 -1.273438 7.171875 -0.816406 6.546875 -0.484375 C 5.921875 -0.160156 5.203125 0 4.390625 0 L 1.25 0 Z M 4.34375 -0.703125 C 5.019531 -0.703125 5.609375 -0.832031 6.109375 -1.09375 C 6.617188 -1.363281 7.015625 -1.734375 7.296875 -2.203125 C 7.578125 -2.679688 7.71875 -3.226562 7.71875 -3.84375 C 7.71875 -4.46875 7.578125 -5.015625 7.296875 -5.484375 C 7.015625 -5.953125 6.617188 -6.320312 6.109375 -6.59375 C 5.609375 -6.863281 5.019531 -7 4.34375 -7 L 2.0625 -7 L 2.0625 -0.703125 Z M 4.34375 -0.703125 "/></g></g><g style="fill:#000000;fill-opacity:1;"><g transform="translate(198.85797, 252.371028)"><path style="stroke:none" d="M 6.078125 -2.0625 L 1.796875 -2.0625 L 0.875 0 L 0.015625 0 L 3.546875 -7.703125 L 4.34375 -7.703125 L 7.859375 0 L 7 0 Z M 5.78125 -2.71875 L 3.9375 -6.859375 L 2.09375 -2.71875 Z M 5.78125 -2.71875 "/></g></g><g style="fill:#000000;fill-opacity:1;"><g transform="translate(214.494467, 252.371028)"><path style="stroke:none" d="M 4.359375 0.0625 C 3.359375 0.0625 2.578125 -0.222656 2.015625 -0.796875 C 1.460938 -1.367188 1.1875 -2.195312 1.1875 -3.28125 L 1.1875 -7.703125 L 2 -7.703125 L 2 -3.328125 C 2 -2.429688 2.203125 -1.757812 2.609375 -1.3125 C 3.015625 -0.875 3.597656 -0.65625 4.359375 -0.65625 C 5.128906 -0.65625 5.710938 -0.875 6.109375 -1.3125 C 6.515625 -1.757812 6.71875 -2.429688 6.71875 -3.328125 L 6.71875 -7.703125 L 7.515625 -7.703125 L 7.515625 -3.28125 C 7.515625 -2.195312 7.238281 -1.367188 6.6875 -0.796875 C 6.132812 -0.222656 5.359375 0.0625 4.359375 0.0625 Z M 4.359375 0.0625 "/></g></g><g style="fill:#000000;fill-opacity:1;"><g transform="translate(230.955373, 252.371028)"><path style="stroke:none" d="M 6.515625 0 L 4.75 -2.46875 C 4.550781 -2.445312 4.347656 -2.4375 4.140625 -2.4375 L 2.0625 -2.4375 L 2.0625 0 L 1.25 0 L 1.25 -7.703125 L 4.140625 -7.703125 C 5.117188 -7.703125 5.882812 -7.46875 6.4375 -7 C 7 -6.53125 7.28125 -5.882812 7.28125 -5.0625 C 7.28125 -4.457031 7.128906 -3.945312 6.828125 -3.53125 C 6.523438 -3.125 6.085938 -2.828125 5.515625 -2.640625 L 7.40625 0 Z M 4.109375 -3.140625 C 4.878906 -3.140625 5.460938 -3.304688 5.859375 -3.640625 C 6.265625 -3.972656 6.46875 -4.445312 6.46875 -5.0625 C 6.46875 -5.6875 6.265625 -6.164062 5.859375 -6.5 C 5.460938 -6.832031 4.878906 -7 4.109375 -7 L 2.0625 -7 L 2.0625 -3.140625 Z M 4.109375 -3.140625 "/></g></g><g style="fill:#000000;fill-opacity:1;"><g transform="translate(246.657822, 252.371028)"><path style="stroke:none" d="M 6.078125 -2.0625 L 1.796875 -2.0625 L 0.875 0 L 0.015625 0 L 3.546875 -7.703125 L 4.34375 -7.703125 L 7.859375 0 L 7 0 Z M 5.78125 -2.71875 L 3.9375 -6.859375 L 2.09375 -2.71875 Z M 5.78125 -2.71875 "/></g></g><g style="fill:#3d3b3a;fill-opacity:1;"><g transform="translate(150.489383, 174.854499)"><path style="stroke:none" d="M 15.59375 -50.09375 C 12.132812 -50.09375 9.535156 -49.210938 7.796875 -47.453125 C 6.066406 -45.691406 4.816406 -42.691406 4.046875 -38.453125 C 4.046875 -38.347656 3.894531 -38.296875 3.59375 -38.296875 C 3.289062 -38.296875 3.140625 -38.347656 3.140625 -38.453125 C 3.359375 -40.441406 3.601562 -43.03125 3.875 -46.21875 C 4.15625 -49.40625 4.296875 -51.796875 4.296875 -53.390625 C 4.296875 -53.671875 4.445312 -53.8125 4.75 -53.8125 C 5.050781 -53.8125 5.203125 -53.671875 5.203125 -53.390625 C 5.203125 -52.179688 6.6875 -51.578125 9.65625 -51.578125 C 14.332031 -51.410156 19.863281 -51.328125 26.25 -51.328125 C 29.488281 -51.328125 32.925781 -51.382812 36.5625 -51.5 L 42.171875 -51.578125 C 44.148438 -51.578125 45.617188 -51.710938 46.578125 -51.984375 C 47.546875 -52.265625 48.171875 -52.816406 48.453125 -53.640625 C 48.503906 -53.859375 48.664062 -53.96875 48.9375 -53.96875 C 49.21875 -53.96875 49.359375 -53.859375 49.359375 -53.640625 C 49.191406 -52.046875 49.023438 -49.625 48.859375 -46.375 C 48.691406 -43.132812 48.609375 -40.492188 48.609375 -38.453125 C 48.609375 -38.347656 48.441406 -38.296875 48.109375 -38.296875 C 47.785156 -38.296875 47.625 -38.347656 47.625 -38.453125 C 47.457031 -42.742188 46.578125 -45.753906 44.984375 -47.484375 C 43.390625 -49.222656 40.75 -50.09375 37.0625 -50.09375 C 34.582031 -50.09375 32.816406 -49.984375 31.765625 -49.765625 C 30.722656 -49.546875 30.007812 -49.078125 29.625 -48.359375 C 29.238281 -47.648438 29.046875 -46.441406 29.046875 -44.734375 L 29.046875 -6.6875 C 29.046875 -4.976562 29.238281 -3.738281 29.625 -2.96875 C 30.007812 -2.195312 30.75 -1.671875 31.84375 -1.390625 C 32.945312 -1.117188 34.6875 -0.984375 37.0625 -0.984375 C 37.21875 -0.984375 37.296875 -0.816406 37.296875 -0.484375 C 37.296875 -0.160156 37.21875 0 37.0625 0 C 35.238281 0 33.78125 -0.0234375 32.6875 -0.078125 L 26.25 -0.171875 L 20.0625 -0.078125 C 18.957031 -0.0234375 17.441406 0 15.515625 0 C 15.398438 0 15.34375 -0.160156 15.34375 -0.484375 C 15.34375 -0.816406 15.398438 -0.984375 15.515625 -0.984375 C 17.878906 -0.984375 19.609375 -1.117188 20.703125 -1.390625 C 21.804688 -1.671875 22.566406 -2.207031 22.984375 -3 C 23.398438 -3.800781 23.609375 -5.03125 23.609375 -6.6875 L 23.609375 -44.890625 C 23.609375 -46.597656 23.414062 -47.796875 23.03125 -48.484375 C 22.644531 -49.171875 21.925781 -49.609375 20.875 -49.796875 C 19.832031 -49.992188 18.070312 -50.09375 15.59375 -50.09375 Z M 15.59375 -50.09375 "/></g></g><g style="fill:#3d3b3a;fill-opacity:1;"><g transform="translate(162.126395, 210.683393)"><path style="stroke:none" d="M 59.25 -1.015625 C 59.476562 -1.015625 59.59375 -0.84375 59.59375 -0.5 C 59.59375 -0.164062 59.476562 0 59.25 0 C 58.175781 0 56.507812 -0.0546875 54.25 -0.171875 C 51.988281 -0.285156 50.347656 -0.34375 49.328125 -0.34375 C 48.085938 -0.34375 46.507812 -0.285156 44.59375 -0.171875 C 42.78125 -0.0546875 41.394531 0 40.4375 0 C 40.207031 0 40.09375 -0.164062 40.09375 -0.5 C 40.09375 -0.84375 40.207031 -1.015625 40.4375 -1.015625 C 42.519531 -1.015625 44.039062 -1.210938 45 -1.609375 C 45.96875 -2.003906 46.453125 -2.679688 46.453125 -3.640625 C 46.453125 -4.429688 46.082031 -5.648438 45.34375 -7.296875 L 37.8125 -23.3125 L 17.625 -23.3125 L 12.296875 -10.765625 C 11.503906 -8.847656 11.109375 -7.296875 11.109375 -6.109375 C 11.109375 -4.347656 11.800781 -3.054688 13.1875 -2.234375 C 14.570312 -1.421875 16.644531 -1.015625 19.40625 -1.015625 C 19.6875 -1.015625 19.828125 -0.84375 19.828125 -0.5 C 19.828125 -0.164062 19.6875 0 19.40625 0 C 18.394531 0 16.925781 -0.0546875 15 -0.171875 C 12.851562 -0.285156 10.988281 -0.34375 9.40625 -0.34375 C 7.9375 -0.34375 6.242188 -0.285156 4.328125 -0.171875 C 2.628906 -0.0546875 1.210938 0 0.078125 0 C -0.203125 0 -0.34375 -0.164062 -0.34375 -0.5 C -0.34375 -0.84375 -0.203125 -1.015625 0.078125 -1.015625 C 1.660156 -1.015625 3.003906 -1.3125 4.109375 -1.90625 C 5.210938 -2.5 6.257812 -3.546875 7.25 -5.046875 C 8.238281 -6.546875 9.328125 -8.707031 10.515625 -11.53125 L 28.390625 -53.734375 C 28.503906 -53.910156 28.703125 -54 28.984375 -54 C 29.265625 -54 29.4375 -53.910156 29.5 -53.734375 L 49.5 -11.609375 C 51.425781 -7.429688 53.066406 -4.617188 54.421875 -3.171875 C 55.773438 -1.734375 57.382812 -1.015625 59.25 -1.015625 Z M 18.3125 -25 L 37.046875 -25 L 27.125 -45.9375 Z M 18.3125 -25 "/></g></g><g clip-rule="nonzero" clip-path="url(#91a823672d)"><g clip-rule="nonzero" clip-path="url(#69c1acdf02)"><path style=" stroke:none;fill-rule:nonzero;fill:#ffffff;fill-opacity:1;" d="M 185.195312 148.035156 L 198.742188 156.210938 L 168.117188 206.957031 L 154.570312 198.78125 Z M 185.195312 148.035156 "/></g></g><g clip-rule="nonzero" clip-path="url(#38c6303a19)"><g clip-rule="nonzero" clip-path="url(#30217e9aef)"><path style=" stroke:none;fill-rule:nonzero;fill:#ffffff;fill-opacity:1;" d="M 167.347656 156.113281 L 185.804688 167.253906 L 174.449219 186.074219 L 155.988281 174.933594 Z M 167.347656 156.113281 "/></g></g><g clip-rule="nonzero" clip-path="url(#ab0018d2f4)"><g clip-rule="nonzero" clip-path="url(#8e90232b0b)"><path style=" stroke:none;fill-rule:nonzero;fill:#ffffff;fill-opacity:1;" d="M 187.726562 158.121094 L 206.167969 169.25 L 196.027344 186.050781 L 177.585938 174.921875 Z M 187.726562 158.121094 "/></g></g><path style="fill:none;stroke-width:2;stroke-linecap:butt;stroke-linejoin:miter;stroke:#3d3b3a;stroke-opacity:1;stroke-miterlimit:4;" d="M -0.00136406 0.998437 L 131.132232 1.000067 " transform="matrix(0.430642,-0.613168,0.613168,0.430642,149.048534,213.70982)"/></g></svg>